REM MD5 a1538a870d180597c7324b7ce564ef69
FILE "Scrabble (France).bin" BINARY
  TRACK 01 MODE2/2352
    INDEX 01 00:00:00
  TRACK 02 AUDIO
    INDEX 00 28:17:35
    INDEX 01 28:19:35
  TRACK 03 AUDIO
    INDEX 00 34:45:08
    INDEX 01 34:47:08
  TRACK 04 AUDIO
    INDEX 00 38:12:20
    INDEX 01 38:14:20
REM LEADOUT 41:29:18
